<svg xmlns="http://www.w3.org/2000/svg" viewBox="0 0 576 512"><!--! Font Awesome Pro 6.2.0 by @fontawesome - https://fontawesome.com License - https://fontawesome.com/license (Commercial License) Copyright 2022 Fonticons, Inc. --><path d="M128 192C110.3 192 96 177.7 96 160C96 142.3 110.3 128 128 128C145.7 128 160 142.3 160 160C160 177.7 145.7 192 128 192zM200 160C200 146.7 210.7 136 224 136H448C461.3 136 472 146.7 472 160C472 173.3 461.3 184 448 184H224C210.7 184 200 173.3 200 160zM200 256C200 242.7 210.7 232 224 232H448C461.3 232 472 242.7 472 256C472 269.3 461.3 280 448 280H224C210.7 280 200 269.3 200 256zM200 352C200 338.7 210.7 328 224 328H448C461.3 328 472 338.7 472 352C472 365.3 461.3 376 448 376H224C210.7 376 200 365.3 200 352zM128 224C145.7 224 160 238.3 160 256C160 273.7 145.7 288 128 288C110.3 288 96 273.7 96 256C96 238.3 110.3 224 128 224zM128 384C110.3 384 96 369.7 96 352C96 334.3 110.3 320 128 320C145.7 320 160 334.3 160 352C160 369.7 145.7 384 128 384zM0 96C0 60.65 28.65 32 64 32H512C547.3 32 576 60.65 576 96V416C576 451.3 547.3 480 512 480H64C28.65 480 0 451.3 0 416V96zM48 96V416C48 424.8 55.16 432 64 432H512C520.8 432 528 424.8 528 416V96C528 87.16 520.8 80 512 80H64C55.16 80 48 87.16 48 96z"/></svg>





<svg xmlns="http://www.w3.org/2000/svg" viewBox="0 0 384 512"><!--! Font Awesome Pro 6.2.0 by @fontawesome - https://fontawesome.com License - https://fontawesome.com/license (Commercial License) Copyright 2022 Fonticons, Inc. --><path d="M101.5 64C114.6 26.7 150.2 0 192 0s77.4 26.7 90.5 64H320c35.3 0 64 28.7 64 64V448c0 35.3-28.7 64-64 64H64c-35.3 0-64-28.7-64-64V128C0 92.7 28.7 64 64 64h37.5zM224 96c0-17.7-14.3-32-32-32s-32 14.3-32 32s14.3 32 32 32s32-14.3 32-32zM160 368c0 8.8 7.2 16 16 16H304c8.8 0 16-7.2 16-16s-7.2-16-16-16H176c-8.8 0-16 7.2-16 16zM96 392c13.3 0 24-10.7 24-24s-10.7-24-24-24s-24 10.7-24 24s10.7 24 24 24zm64-120c0 8.8 7.2 16 16 16H304c8.8 0 16-7.2 16-16s-7.2-16-16-16H176c-8.8 0-16 7.2-16 16zM96 296c13.3 0 24-10.7 24-24s-10.7-24-24-24s-24 10.7-24 24s10.7 24 24 24z"/></svg>


<svg xmlns="http://www.w3.org/2000/svg" viewBox="0 0 640 512"><!--! Font Awesome Pro 6.2.0 by @fontawesome - https://fontawesome.com License - https://fontawesome.com/license (Commercial License) Copyright 2022 Fonticons, Inc. --><path d="M352 128c0 70.7-57.3 128-128 128s-128-57.3-128-128S153.3 0 224 0s128 57.3 128 128zM0 482.3C0 383.8 79.8 304 178.3 304h91.4C368.2 304 448 383.8 448 482.3c0 16.4-13.3 29.7-29.7 29.7H29.7C13.3 512 0 498.7 0 482.3zM609.3 512H471.4c5.4-9.4 8.6-20.3 8.6-32v-8c0-60.7-27.1-115.2-69.8-151.8c2.4-.1 4.7-.2 7.1-.2h61.4C567.8 320 640 392.2 640 481.3c0 17-13.8 30.7-30.7 30.7zM432 256c-31 0-59-12.6-79.3-32.9C372.4 196.5 384 163.6 384 128c0-26.8-6.6-52.1-18.3-74.3C384.3 40.1 407.2 32 432 32c61.9 0 112 50.1 112 112s-50.1 112-112 112z"/></svg>
